<svg width="1728" height="408" viewBox="0 0 1728 408" fill="none" xmlns="http://www.w3.org/2000/svg">
<g clip-path="url(#clip0_2_2929)">
<rect width="1728" height="408" fill="white"/>
<rect width="1728" height="408" fill="#292929"/>
<g clip-path="url(#clip1_2_2929)">
<path opacity="0.7" d="M962.015 277.322V276.013H965.354C966.199 276.013 966.854 275.795 967.318 275.358C967.782 274.916 968.014 274.308 968.014 273.533V273.517C968.014 272.736 967.782 272.128 967.318 271.692C966.854 271.255 966.199 271.037 965.354 271.037H962.015V269.727H965.73C966.472 269.727 967.127 269.886 967.694 270.202C968.262 270.519 968.707 270.96 969.028 271.528C969.356 272.095 969.52 272.753 969.52 273.5V273.517C969.52 274.264 969.356 274.924 969.028 275.497C968.707 276.07 968.262 276.518 967.694 276.839C967.127 277.161 966.472 277.322 965.73 277.322H962.015ZM961.278 281.537V269.727H962.751V281.537H961.278ZM971.754 281.537V272.715H973.178V274.024H973.309C973.478 273.56 973.764 273.2 974.168 272.944C974.572 272.687 975.071 272.559 975.666 272.559C975.802 272.559 975.936 272.567 976.067 272.584C976.203 272.595 976.307 272.605 976.378 272.616V274C976.231 273.972 976.086 273.953 975.944 273.942C975.808 273.926 975.66 273.918 975.502 273.918C975.049 273.918 974.648 274.008 974.299 274.188C973.95 274.368 973.674 274.619 973.472 274.941C973.276 275.263 973.178 275.639 973.178 276.07V281.537H971.754ZM978.17 281.537V272.715H979.594V281.537H978.17ZM978.89 271.012C978.623 271.012 978.391 270.917 978.195 270.726C978.004 270.529 977.908 270.298 977.908 270.03C977.908 269.757 978.004 269.526 978.195 269.335C978.391 269.144 978.623 269.048 978.89 269.048C979.163 269.048 979.395 269.144 979.586 269.335C979.777 269.526 979.872 269.757 979.872 270.03C979.872 270.298 979.777 270.529 979.586 270.726C979.395 270.917 979.163 271.012 978.89 271.012ZM984.775 281.537L981.509 272.715H983.015L985.429 279.982H985.56L987.975 272.715H989.481L986.215 281.537H984.775ZM993.458 281.693C992.902 281.693 992.4 281.586 991.952 281.373C991.51 281.161 991.158 280.858 990.896 280.465C990.64 280.072 990.512 279.608 990.512 279.074V279.057C990.512 278.534 990.637 278.086 990.888 277.715C991.139 277.339 991.505 277.044 991.985 276.831C992.465 276.618 993.046 276.493 993.728 276.455L996.969 276.258V277.396L993.9 277.592C993.229 277.631 992.738 277.77 992.427 278.01C992.121 278.25 991.969 278.588 991.969 279.025V279.041C991.969 279.488 992.138 279.838 992.476 280.089C992.814 280.334 993.24 280.457 993.753 280.457C994.238 280.457 994.669 280.361 995.046 280.17C995.422 279.974 995.717 279.709 995.93 279.376C996.148 279.044 996.257 278.667 996.257 278.247V275.497C996.257 274.952 996.091 274.537 995.758 274.253C995.431 273.964 994.937 273.819 994.277 273.819C993.747 273.819 993.314 273.915 992.975 274.106C992.637 274.291 992.411 274.556 992.296 274.9L992.288 274.924H990.864L990.872 274.875C990.948 274.411 991.139 274.008 991.445 273.664C991.756 273.315 992.157 273.045 992.648 272.854C993.139 272.657 993.698 272.559 994.326 272.559C995.046 272.559 995.654 272.676 996.151 272.911C996.653 273.146 997.032 273.484 997.288 273.926C997.55 274.362 997.681 274.886 997.681 275.497V281.537H996.257V280.236H996.126C995.941 280.547 995.714 280.811 995.447 281.03C995.185 281.248 994.888 281.414 994.555 281.529C994.222 281.638 993.856 281.693 993.458 281.693ZM1003.89 281.693C1003.07 281.693 1002.35 281.504 1001.75 281.128C1001.14 280.751 1000.67 280.219 1000.34 279.532C1000.01 278.845 999.842 278.034 999.842 277.101V277.085C999.842 276.168 1000.01 275.372 1000.33 274.695C1000.67 274.019 1001.13 273.495 1001.74 273.124C1002.35 272.747 1003.06 272.559 1003.88 272.559C1004.6 272.559 1005.22 272.685 1005.73 272.936C1006.25 273.187 1006.67 273.525 1006.98 273.95C1007.29 274.371 1007.49 274.842 1007.58 275.366L1007.58 275.415H1006.17L1006.16 275.391C1006.05 274.954 1005.8 274.583 1005.42 274.278C1005.03 273.972 1004.52 273.819 1003.88 273.819C1003.36 273.819 1002.9 273.953 1002.51 274.22C1002.12 274.488 1001.82 274.867 1001.61 275.358C1001.4 275.844 1001.3 276.419 1001.3 277.085V277.101C1001.3 277.778 1001.4 278.367 1001.62 278.869C1001.83 279.366 1002.13 279.75 1002.52 280.023C1002.91 280.296 1003.36 280.432 1003.88 280.432C1004.48 280.432 1004.97 280.304 1005.34 280.048C1005.72 279.791 1005.99 279.417 1006.15 278.926L1006.17 278.877L1007.58 278.869L1007.56 278.959C1007.44 279.488 1007.23 279.96 1006.92 280.375C1006.62 280.784 1006.21 281.106 1005.71 281.341C1005.21 281.575 1004.6 281.693 1003.89 281.693ZM1010.42 284.631C1010.32 284.631 1010.22 284.625 1010.1 284.614C1009.99 284.609 1009.88 284.598 1009.79 284.582V283.411C1009.87 283.428 1009.97 283.439 1010.07 283.444C1010.18 283.449 1010.28 283.452 1010.37 283.452C1010.78 283.452 1011.11 283.349 1011.37 283.141C1011.63 282.934 1011.84 282.576 1012 282.069L1012.16 281.545L1008.89 272.715H1010.42L1013.13 280.866L1012.57 279.974H1013.24L1012.67 280.866L1015.38 272.715H1016.88L1013.44 282.077C1013.2 282.737 1012.94 283.253 1012.67 283.624C1012.41 283.995 1012.09 284.254 1011.73 284.402C1011.38 284.554 1010.94 284.631 1010.42 284.631ZM1024.39 277.322V276.013H1027.73C1028.58 276.013 1029.23 275.795 1029.7 275.358C1030.16 274.916 1030.39 274.308 1030.39 273.533V273.517C1030.39 272.736 1030.16 272.128 1029.7 271.692C1029.23 271.255 1028.58 271.037 1027.73 271.037H1024.39V269.727H1028.11C1028.85 269.727 1029.51 269.886 1030.07 270.202C1030.64 270.519 1031.09 270.96 1031.41 271.528C1031.74 272.095 1031.9 272.753 1031.9 273.5V273.517C1031.9 274.264 1031.74 274.924 1031.41 275.497C1031.09 276.07 1030.64 276.518 1030.07 276.839C1029.51 277.161 1028.85 277.322 1028.11 277.322H1024.39ZM1023.66 281.537V269.727H1025.13V281.537H1023.66ZM1037.51 281.693C1036.68 281.693 1035.96 281.51 1035.34 281.144C1034.74 280.773 1034.27 280.247 1033.94 279.565C1033.61 278.883 1033.45 278.072 1033.45 277.134V277.118C1033.45 276.174 1033.61 275.361 1033.94 274.679C1034.27 273.997 1034.74 273.473 1035.34 273.107C1035.96 272.742 1036.68 272.559 1037.51 272.559C1038.35 272.559 1039.08 272.742 1039.68 273.107C1040.29 273.473 1040.75 273.997 1041.08 274.679C1041.41 275.361 1041.58 276.174 1041.58 277.118V277.134C1041.58 278.072 1041.41 278.883 1041.08 279.565C1040.75 280.247 1040.29 280.773 1039.68 281.144C1039.08 281.51 1038.35 281.693 1037.51 281.693ZM1037.51 280.432C1038.07 280.432 1038.54 280.301 1038.93 280.039C1039.32 279.778 1039.61 279.401 1039.81 278.91C1040.02 278.419 1040.12 277.827 1040.12 277.134V277.118C1040.12 276.419 1040.02 275.825 1039.81 275.334C1039.61 274.842 1039.32 274.469 1038.93 274.212C1038.54 273.95 1038.07 273.819 1037.51 273.819C1036.96 273.819 1036.48 273.95 1036.1 274.212C1035.71 274.469 1035.41 274.842 1035.21 275.334C1035 275.825 1034.9 276.419 1034.9 277.118V277.134C1034.9 277.827 1035 278.419 1035.21 278.91C1035.41 279.401 1035.71 279.778 1036.1 280.039C1036.48 280.301 1036.96 280.432 1037.51 280.432ZM1043.87 281.537V269.212H1045.3V281.537H1043.87ZM1048.06 281.537V272.715H1049.49V281.537H1048.06ZM1048.78 271.012C1048.52 271.012 1048.28 270.917 1048.09 270.726C1047.9 270.529 1047.8 270.298 1047.8 270.03C1047.8 269.757 1047.9 269.526 1048.09 269.335C1048.28 269.144 1048.52 269.048 1048.78 269.048C1049.06 269.048 1049.29 269.144 1049.48 269.335C1049.67 269.526 1049.76 269.757 1049.76 270.03C1049.76 270.298 1049.67 270.529 1049.48 270.726C1049.29 270.917 1049.06 271.012 1048.78 271.012ZM1055.78 281.693C1054.96 281.693 1054.24 281.504 1053.64 281.128C1053.03 280.751 1052.56 280.219 1052.23 279.532C1051.9 278.845 1051.73 278.034 1051.73 277.101V277.085C1051.73 276.168 1051.89 275.372 1052.22 274.695C1052.55 274.019 1053.02 273.495 1053.63 273.124C1054.23 272.747 1054.95 272.559 1055.77 272.559C1056.49 272.559 1057.1 272.685 1057.62 272.936C1058.14 273.187 1058.55 273.525 1058.87 273.95C1059.18 274.371 1059.38 274.842 1059.46 275.366L1059.47 275.415H1058.06L1058.05 275.391C1057.94 274.954 1057.69 274.583 1057.3 274.278C1056.92 273.972 1056.41 273.819 1055.77 273.819C1055.24 273.819 1054.78 273.953 1054.4 274.22C1054.01 274.488 1053.71 274.867 1053.5 275.358C1053.29 275.844 1053.19 276.419 1053.19 277.085V277.101C1053.19 277.778 1053.29 278.367 1053.51 278.869C1053.72 279.366 1054.02 279.75 1054.41 280.023C1054.79 280.296 1055.25 280.432 1055.77 280.432C1056.37 280.432 1056.85 280.304 1057.23 280.048C1057.61 279.791 1057.88 279.417 1058.04 278.926L1058.06 278.877L1059.46 278.869L1059.45 278.959C1059.33 279.488 1059.11 279.96 1058.81 280.375C1058.5 280.784 1058.1 281.106 1057.6 281.341C1057.1 281.575 1056.49 281.693 1055.78 281.693ZM1062.3 284.631C1062.21 284.631 1062.11 284.625 1061.99 284.614C1061.88 284.609 1061.77 284.598 1061.67 284.582V283.411C1061.76 283.428 1061.86 283.439 1061.96 283.444C1062.06 283.449 1062.16 283.452 1062.26 283.452C1062.67 283.452 1063 283.349 1063.25 283.141C1063.51 282.934 1063.72 282.576 1063.88 282.069L1064.05 281.545L1060.78 272.715H1062.3L1065.02 280.866L1064.46 279.974H1065.13L1064.56 280.866L1067.27 272.715H1068.77L1065.32 282.077C1065.08 282.737 1064.83 283.253 1064.56 283.624C1064.29 283.995 1063.98 284.254 1063.62 284.402C1063.27 284.554 1062.83 284.631 1062.3 284.631Z" fill="white"/>
<path opacity="0.7" d="M1122.24 281.537V271.053H1118.43V269.727H1127.51V271.053H1123.71V281.537H1122.24ZM1131.57 281.693C1130.73 281.693 1130.01 281.507 1129.41 281.136C1128.81 280.765 1128.34 280.241 1128.01 279.565C1127.69 278.883 1127.53 278.081 1127.53 277.159V277.15C1127.53 276.239 1127.69 275.44 1128.01 274.752C1128.34 274.065 1128.8 273.528 1129.4 273.14C1129.99 272.753 1130.69 272.559 1131.48 272.559C1132.29 272.559 1132.97 272.745 1133.55 273.116C1134.12 273.487 1134.57 274.005 1134.87 274.671C1135.18 275.331 1135.34 276.1 1135.34 276.979V277.535H1128.27V276.397H1134.61L1133.91 277.437V276.872C1133.91 276.179 1133.8 275.609 1133.6 275.162C1133.39 274.714 1133.1 274.381 1132.74 274.163C1132.37 273.94 1131.95 273.828 1131.48 273.828C1131 273.828 1130.58 273.945 1130.2 274.18C1129.83 274.409 1129.53 274.75 1129.32 275.203C1129.1 275.655 1128.99 276.212 1128.99 276.872V277.437C1128.99 278.064 1129.09 278.602 1129.31 279.049C1129.52 279.491 1129.82 279.832 1130.22 280.072C1130.61 280.307 1131.07 280.424 1131.61 280.424C1132.01 280.424 1132.35 280.37 1132.65 280.26C1132.94 280.151 1133.18 280.012 1133.37 279.843C1133.57 279.674 1133.7 279.502 1133.78 279.327L1133.81 279.254H1135.23L1135.22 279.319C1135.14 279.619 1135 279.911 1134.81 280.195C1134.62 280.473 1134.37 280.727 1134.06 280.956C1133.76 281.18 1133.39 281.36 1132.97 281.496C1132.56 281.627 1132.09 281.693 1131.57 281.693ZM1137.55 281.537V272.715H1138.97V274.024H1139.1C1139.27 273.56 1139.56 273.2 1139.96 272.944C1140.37 272.687 1140.87 272.559 1141.46 272.559C1141.6 272.559 1141.73 272.567 1141.86 272.584C1142 272.595 1142.1 272.605 1142.17 272.616V274C1142.03 273.972 1141.88 273.953 1141.74 273.942C1141.6 273.926 1141.46 273.918 1141.3 273.918C1140.84 273.918 1140.44 274.008 1140.09 274.188C1139.74 274.368 1139.47 274.619 1139.27 274.941C1139.07 275.263 1138.97 275.639 1138.97 276.07V281.537H1137.55ZM1144.1 281.537V272.715H1145.52V274.057H1145.65C1145.85 273.582 1146.15 273.214 1146.55 272.952C1146.96 272.69 1147.45 272.559 1148.03 272.559C1148.43 272.559 1148.79 272.625 1149.1 272.756C1149.42 272.886 1149.69 273.069 1149.92 273.304C1150.15 273.533 1150.33 273.8 1150.47 274.106H1150.6C1150.76 273.795 1150.97 273.525 1151.24 273.296C1151.51 273.061 1151.82 272.881 1152.17 272.756C1152.52 272.625 1152.9 272.559 1153.3 272.559C1153.9 272.559 1154.41 272.671 1154.83 272.895C1155.25 273.118 1155.56 273.446 1155.78 273.877C1156 274.302 1156.11 274.823 1156.11 275.44V281.537H1154.69V275.767C1154.69 275.331 1154.62 274.971 1154.48 274.687C1154.35 274.398 1154.15 274.182 1153.88 274.04C1153.6 273.893 1153.26 273.819 1152.84 273.819C1152.44 273.819 1152.08 273.912 1151.77 274.098C1151.47 274.283 1151.23 274.531 1151.06 274.842C1150.89 275.148 1150.81 275.489 1150.81 275.866V281.537H1149.38V275.546C1149.38 275.197 1149.31 274.894 1149.15 274.638C1149.01 274.376 1148.79 274.174 1148.52 274.032C1148.24 273.89 1147.92 273.819 1147.55 273.819C1147.17 273.819 1146.82 273.92 1146.51 274.122C1146.2 274.324 1145.96 274.597 1145.78 274.941C1145.61 275.279 1145.52 275.655 1145.52 276.07V281.537H1144.1ZM1161.71 281.693C1161.05 281.693 1160.48 281.594 1159.97 281.398C1159.47 281.196 1159.07 280.915 1158.76 280.555C1158.46 280.195 1158.28 279.772 1158.23 279.286H1159.69C1159.81 279.652 1160.04 279.947 1160.39 280.17C1160.74 280.394 1161.2 280.506 1161.76 280.506C1162.16 280.506 1162.5 280.449 1162.8 280.334C1163.11 280.214 1163.35 280.053 1163.53 279.851C1163.7 279.644 1163.79 279.407 1163.79 279.139V279.123C1163.79 278.823 1163.67 278.569 1163.43 278.362C1163.19 278.149 1162.79 277.977 1162.25 277.846L1160.88 277.519C1160.33 277.388 1159.88 277.219 1159.52 277.011C1159.17 276.798 1158.91 276.539 1158.74 276.234C1158.57 275.923 1158.48 275.557 1158.48 275.137V275.129C1158.48 274.638 1158.63 274.199 1158.91 273.811C1159.2 273.424 1159.59 273.118 1160.09 272.895C1160.58 272.671 1161.14 272.559 1161.77 272.559C1162.38 272.559 1162.93 272.657 1163.4 272.854C1163.88 273.045 1164.27 273.318 1164.56 273.672C1164.85 274.027 1165.03 274.444 1165.1 274.924H1163.7C1163.6 274.575 1163.39 274.291 1163.06 274.073C1162.73 273.855 1162.29 273.746 1161.76 273.746C1161.41 273.746 1161.1 273.803 1160.82 273.918C1160.55 274.027 1160.34 274.18 1160.18 274.376C1160.02 274.572 1159.94 274.802 1159.94 275.063V275.08C1159.94 275.276 1159.99 275.451 1160.1 275.604C1160.2 275.756 1160.36 275.89 1160.58 276.005C1160.8 276.119 1161.08 276.22 1161.42 276.307L1162.78 276.635C1163.61 276.837 1164.23 277.126 1164.63 277.502C1165.04 277.879 1165.24 278.383 1165.24 279.016V279.033C1165.24 279.557 1165.09 280.02 1164.78 280.424C1164.47 280.822 1164.04 281.133 1163.51 281.357C1162.98 281.581 1162.38 281.693 1161.71 281.693ZM1174.59 281.693C1174.03 281.693 1173.53 281.586 1173.08 281.373C1172.64 281.161 1172.29 280.858 1172.03 280.465C1171.77 280.072 1171.64 279.608 1171.64 279.074V279.057C1171.64 278.534 1171.77 278.086 1172.02 277.715C1172.27 277.339 1172.64 277.044 1173.12 276.831C1173.6 276.618 1174.18 276.493 1174.86 276.455L1178.1 276.258V277.396L1175.03 277.592C1174.36 277.631 1173.87 277.77 1173.56 278.01C1173.25 278.25 1173.1 278.588 1173.1 279.025V279.041C1173.1 279.488 1173.27 279.838 1173.61 280.089C1173.95 280.334 1174.37 280.457 1174.88 280.457C1175.37 280.457 1175.8 280.361 1176.18 280.17C1176.55 279.974 1176.85 279.709 1177.06 279.376C1177.28 279.044 1177.39 278.667 1177.39 278.247V275.497C1177.39 274.952 1177.22 274.537 1176.89 274.253C1176.56 273.964 1176.07 273.819 1175.41 273.819C1174.88 273.819 1174.45 273.915 1174.11 274.106C1173.77 274.291 1173.54 274.556 1173.43 274.9L1173.42 274.924H1172L1172 274.875C1172.08 274.411 1172.27 274.008 1172.58 273.664C1172.89 273.315 1173.29 273.045 1173.78 272.854C1174.27 272.657 1174.83 272.559 1175.46 272.559C1176.18 272.559 1176.79 272.676 1177.28 272.911C1177.78 273.146 1178.16 273.484 1178.42 273.926C1178.68 274.362 1178.81 274.886 1178.81 275.497V281.537H1177.39V280.236H1177.26C1177.07 280.547 1176.85 280.811 1176.58 281.03C1176.32 281.248 1176.02 281.414 1175.69 281.529C1175.35 281.638 1174.99 281.693 1174.59 281.693ZM1181.42 281.537V272.715H1182.84V274.04H1182.97C1183.19 273.571 1183.52 273.208 1183.94 272.952C1184.36 272.69 1184.89 272.559 1185.54 272.559C1186.53 272.559 1187.29 272.843 1187.82 273.41C1188.36 273.972 1188.63 274.777 1188.63 275.825V281.537H1187.2V276.168C1187.2 275.372 1187.03 274.782 1186.69 274.401C1186.36 274.013 1185.84 273.819 1185.14 273.819C1184.67 273.819 1184.26 273.92 1183.92 274.122C1183.58 274.324 1183.31 274.611 1183.12 274.982C1182.93 275.353 1182.84 275.797 1182.84 276.316V281.537H1181.42ZM1194.46 281.693C1193.72 281.693 1193.07 281.504 1192.51 281.128C1191.96 280.751 1191.53 280.222 1191.22 279.54C1190.91 278.853 1190.76 278.051 1190.76 277.134V277.118C1190.76 276.196 1190.91 275.394 1191.22 274.712C1191.53 274.03 1191.95 273.5 1192.51 273.124C1193.06 272.747 1193.71 272.559 1194.46 272.559C1194.86 272.559 1195.24 272.625 1195.6 272.756C1195.96 272.881 1196.28 273.058 1196.56 273.287C1196.83 273.517 1197.05 273.789 1197.21 274.106H1197.34V269.212H1198.77V281.537H1197.34V280.129H1197.21C1197.03 280.457 1196.8 280.738 1196.53 280.972C1196.26 281.202 1195.95 281.379 1195.6 281.504C1195.25 281.63 1194.87 281.693 1194.46 281.693ZM1194.79 280.432C1195.32 280.432 1195.78 280.299 1196.17 280.031C1196.56 279.764 1196.86 279.385 1197.06 278.894C1197.27 278.397 1197.37 277.811 1197.37 277.134V277.118C1197.37 276.436 1197.27 275.849 1197.06 275.358C1196.86 274.867 1196.56 274.488 1196.17 274.22C1195.78 273.953 1195.32 273.819 1194.79 273.819C1194.25 273.819 1193.79 273.953 1193.41 274.22C1193.02 274.482 1192.73 274.859 1192.52 275.35C1192.32 275.841 1192.22 276.43 1192.22 277.118V277.134C1192.22 277.816 1192.32 278.405 1192.52 278.902C1192.73 279.393 1193.02 279.772 1193.41 280.039C1193.79 280.301 1194.25 280.432 1194.79 280.432ZM1211.15 281.815C1210.08 281.815 1209.15 281.564 1208.37 281.062C1207.59 280.56 1206.99 279.848 1206.57 278.926C1206.15 278.004 1205.94 276.91 1205.94 275.645V275.628C1205.94 274.357 1206.15 273.26 1206.57 272.338C1206.99 271.416 1207.59 270.704 1208.37 270.202C1209.15 269.7 1210.07 269.449 1211.14 269.449C1211.97 269.449 1212.72 269.613 1213.4 269.94C1214.08 270.262 1214.64 270.712 1215.09 271.291C1215.53 271.863 1215.81 272.526 1215.92 273.279L1215.91 273.296H1214.43L1214.42 273.279C1214.29 272.772 1214.07 272.335 1213.76 271.97C1213.45 271.599 1213.07 271.312 1212.62 271.111C1212.18 270.909 1211.69 270.808 1211.14 270.808C1210.39 270.808 1209.73 271.004 1209.18 271.397C1208.63 271.79 1208.2 272.346 1207.9 273.067C1207.6 273.787 1207.45 274.641 1207.45 275.628V275.645C1207.45 276.627 1207.6 277.478 1207.9 278.198C1208.2 278.918 1208.63 279.475 1209.18 279.868C1209.73 280.26 1210.39 280.457 1211.15 280.457C1211.7 280.457 1212.2 280.37 1212.65 280.195C1213.09 280.015 1213.47 279.761 1213.78 279.434C1214.08 279.101 1214.29 278.708 1214.41 278.255L1214.43 278.239H1215.92V278.255C1215.79 278.975 1215.51 279.603 1215.07 280.138C1214.63 280.667 1214.08 281.079 1213.41 281.373C1212.74 281.668 1211.99 281.815 1211.15 281.815ZM1221.84 281.693C1221 281.693 1220.28 281.51 1219.67 281.144C1219.06 280.773 1218.59 280.247 1218.26 279.565C1217.93 278.883 1217.77 278.072 1217.77 277.134V277.118C1217.77 276.174 1217.93 275.361 1218.26 274.679C1218.59 273.997 1219.06 273.473 1219.67 273.107C1220.28 272.742 1221 272.559 1221.84 272.559C1222.68 272.559 1223.4 272.742 1224.01 273.107C1224.61 273.473 1225.08 273.997 1225.41 274.679C1225.74 275.361 1225.9 276.174 1225.9 277.118V277.134C1225.9 278.072 1225.74 278.883 1225.41 279.565C1225.08 280.247 1224.61 280.773 1224.01 281.144C1223.4 281.51 1222.68 281.693 1221.84 281.693ZM1221.84 280.432C1222.39 280.432 1222.87 280.301 1223.25 280.039C1223.64 279.778 1223.93 279.401 1224.14 278.91C1224.34 278.419 1224.45 277.827 1224.45 277.134V277.118C1224.45 276.419 1224.34 275.825 1224.14 275.334C1223.93 274.842 1223.64 274.469 1223.25 274.212C1222.87 273.95 1222.39 273.819 1221.84 273.819C1221.28 273.819 1220.81 273.95 1220.42 274.212C1220.03 274.469 1219.74 274.842 1219.53 275.334C1219.33 275.825 1219.23 276.419 1219.23 277.118V277.134C1219.23 277.827 1219.33 278.419 1219.53 278.91C1219.74 279.401 1220.03 279.778 1220.42 280.039C1220.81 280.301 1221.28 280.432 1221.84 280.432ZM1228.11 281.537V272.715H1229.54V274.04H1229.67C1229.89 273.571 1230.21 273.208 1230.63 272.952C1231.06 272.69 1231.59 272.559 1232.24 272.559C1233.23 272.559 1233.99 272.843 1234.52 273.41C1235.06 273.972 1235.32 274.777 1235.32 275.825V281.537H1233.9V276.168C1233.9 275.372 1233.73 274.782 1233.39 274.401C1233.06 274.013 1232.54 273.819 1231.84 273.819C1231.37 273.819 1230.96 273.92 1230.62 274.122C1230.27 274.324 1230.01 274.611 1229.82 274.982C1229.63 275.353 1229.54 275.797 1229.54 276.316V281.537H1228.11ZM1241.16 281.693C1240.42 281.693 1239.77 281.504 1239.21 281.128C1238.66 280.751 1238.22 280.222 1237.92 279.54C1237.61 278.853 1237.46 278.051 1237.46 277.134V277.118C1237.46 276.196 1237.61 275.394 1237.92 274.712C1238.22 274.03 1238.65 273.5 1239.2 273.124C1239.76 272.747 1240.41 272.559 1241.16 272.559C1241.56 272.559 1241.94 272.625 1242.3 272.756C1242.66 272.881 1242.98 273.058 1243.25 273.287C1243.53 273.517 1243.75 273.789 1243.91 274.106H1244.04V269.212H1245.46V281.537H1244.04V280.129H1243.91C1243.73 280.457 1243.5 280.738 1243.23 280.972C1242.96 281.202 1242.65 281.379 1242.3 281.504C1241.95 281.63 1241.57 281.693 1241.16 281.693ZM1241.49 280.432C1242.02 280.432 1242.48 280.299 1242.87 280.031C1243.26 279.764 1243.55 279.385 1243.76 278.894C1243.97 278.397 1244.07 277.811 1244.07 277.134V277.118C1244.07 276.436 1243.97 275.849 1243.76 275.358C1243.55 274.867 1243.26 274.488 1242.87 274.22C1242.48 273.953 1242.02 273.819 1241.49 273.819C1240.95 273.819 1240.49 273.953 1240.1 274.22C1239.72 274.482 1239.43 274.859 1239.22 275.35C1239.02 275.841 1238.92 276.43 1238.92 277.118V277.134C1238.92 277.816 1239.02 278.405 1239.22 278.902C1239.43 279.393 1239.72 279.772 1240.1 280.039C1240.49 280.301 1240.95 280.432 1241.49 280.432ZM1248.23 281.537V272.715H1249.65V281.537H1248.23ZM1248.95 271.012C1248.68 271.012 1248.45 270.917 1248.26 270.726C1248.06 270.529 1247.97 270.298 1247.97 270.03C1247.97 269.757 1248.06 269.526 1248.26 269.335C1248.45 269.144 1248.68 269.048 1248.95 269.048C1249.22 269.048 1249.46 269.144 1249.65 269.335C1249.84 269.526 1249.93 269.757 1249.93 270.03C1249.93 270.298 1249.84 270.529 1249.65 270.726C1249.46 270.917 1249.22 271.012 1248.95 271.012ZM1255.47 281.603C1254.57 281.603 1253.91 281.42 1253.5 281.054C1253.1 280.689 1252.9 280.086 1252.9 279.246V273.893H1251.5V272.715H1252.9V270.431H1254.37V272.715H1256.3V273.893H1254.37V278.885C1254.37 279.404 1254.47 279.778 1254.66 280.007C1254.86 280.23 1255.19 280.342 1255.65 280.342C1255.77 280.342 1255.88 280.339 1255.96 280.334C1256.06 280.329 1256.17 280.32 1256.3 280.309V281.521C1256.16 281.543 1256.03 281.562 1255.89 281.578C1255.75 281.594 1255.62 281.603 1255.47 281.603ZM1258.46 281.537V272.715H1259.89V281.537H1258.46ZM1259.18 271.012C1258.91 271.012 1258.68 270.917 1258.49 270.726C1258.29 270.529 1258.2 270.298 1258.2 270.03C1258.2 269.757 1258.29 269.526 1258.49 269.335C1258.68 269.144 1258.91 269.048 1259.18 269.048C1259.45 269.048 1259.69 269.144 1259.88 269.335C1260.07 269.526 1260.16 269.757 1260.16 270.03C1260.16 270.298 1260.07 270.529 1259.88 270.726C1259.69 270.917 1259.45 271.012 1259.18 271.012ZM1266.2 281.693C1265.36 281.693 1264.64 281.51 1264.03 281.144C1263.42 280.773 1262.95 280.247 1262.62 279.565C1262.29 278.883 1262.13 278.072 1262.13 277.134V277.118C1262.13 276.174 1262.29 275.361 1262.62 274.679C1262.95 273.997 1263.42 273.473 1264.03 273.107C1264.64 272.742 1265.36 272.559 1266.2 272.559C1267.04 272.559 1267.76 272.742 1268.36 273.107C1268.97 273.473 1269.44 273.997 1269.76 274.679C1270.1 275.361 1270.26 276.174 1270.26 277.118V277.134C1270.26 278.072 1270.1 278.883 1269.76 279.565C1269.44 280.247 1268.97 280.773 1268.36 281.144C1267.76 281.51 1267.04 281.693 1266.2 281.693ZM1266.2 280.432C1266.75 280.432 1267.22 280.301 1267.61 280.039C1268 279.778 1268.29 279.401 1268.49 278.91C1268.7 278.419 1268.81 277.827 1268.81 277.134V277.118C1268.81 276.419 1268.7 275.825 1268.49 275.334C1268.29 274.842 1268 274.469 1267.61 274.212C1267.22 273.95 1266.75 273.819 1266.2 273.819C1265.64 273.819 1265.17 273.95 1264.78 274.212C1264.39 274.469 1264.09 274.842 1263.89 275.334C1263.69 275.825 1263.58 276.419 1263.58 277.118V277.134C1263.58 277.827 1263.69 278.419 1263.89 278.91C1264.09 279.401 1264.39 279.778 1264.78 280.039C1265.17 280.301 1265.64 280.432 1266.2 280.432ZM1272.47 281.537V272.715H1273.9V274.04H1274.03C1274.25 273.571 1274.57 273.208 1274.99 272.952C1275.41 272.69 1275.95 272.559 1276.6 272.559C1277.59 272.559 1278.35 272.843 1278.88 273.41C1279.42 273.972 1279.68 274.777 1279.68 275.825V281.537H1278.26V276.168C1278.26 275.372 1278.09 274.782 1277.75 274.401C1277.42 274.013 1276.9 273.819 1276.2 273.819C1275.73 273.819 1275.32 273.92 1274.98 274.122C1274.63 274.324 1274.37 274.611 1274.17 274.982C1273.99 275.353 1273.9 275.797 1273.9 276.316V281.537H1272.47ZM1285.29 281.693C1284.63 281.693 1284.06 281.594 1283.55 281.398C1283.05 281.196 1282.65 280.915 1282.34 280.555C1282.04 280.195 1281.86 279.772 1281.81 279.286H1283.27C1283.39 279.652 1283.62 279.947 1283.97 280.17C1284.32 280.394 1284.78 280.506 1285.34 280.506C1285.74 280.506 1286.09 280.449 1286.39 280.334C1286.69 280.214 1286.93 280.053 1287.11 279.851C1287.28 279.644 1287.37 279.407 1287.37 279.139V279.123C1287.37 278.823 1287.25 278.569 1287.01 278.362C1286.77 278.149 1286.37 277.977 1285.83 277.846L1284.46 277.519C1283.91 277.388 1283.46 277.219 1283.1 277.011C1282.75 276.798 1282.49 276.539 1282.32 276.234C1282.15 275.923 1282.06 275.557 1282.06 275.137V275.129C1282.06 274.638 1282.21 274.199 1282.49 273.811C1282.78 273.424 1283.17 273.118 1283.67 272.895C1284.16 272.671 1284.72 272.559 1285.35 272.559C1285.96 272.559 1286.51 272.657 1286.98 272.854C1287.46 273.045 1287.85 273.318 1288.14 273.672C1288.43 274.027 1288.61 274.444 1288.68 274.924H1287.28C1287.18 274.575 1286.97 274.291 1286.64 274.073C1286.31 273.855 1285.87 273.746 1285.34 273.746C1284.99 273.746 1284.68 273.803 1284.4 273.918C1284.13 274.027 1283.92 274.18 1283.76 274.376C1283.6 274.572 1283.52 274.802 1283.52 275.063V275.08C1283.52 275.276 1283.57 275.451 1283.68 275.604C1283.78 275.756 1283.94 275.89 1284.16 276.005C1284.38 276.119 1284.66 276.22 1285 276.307L1286.36 276.635C1287.19 276.837 1287.81 277.126 1288.21 277.502C1288.62 277.879 1288.82 278.383 1288.82 279.016V279.033C1288.82 279.557 1288.67 280.02 1288.36 280.424C1288.05 280.822 1287.62 281.133 1287.09 281.357C1286.56 281.581 1285.96 281.693 1285.29 281.693Z" fill="white"/>
<path opacity="0.7" d="M1344.81 281.815C1343.74 281.815 1342.82 281.564 1342.04 281.062C1341.26 280.56 1340.65 279.848 1340.23 278.926C1339.81 278.004 1339.6 276.91 1339.6 275.645V275.628C1339.6 274.357 1339.81 273.26 1340.23 272.338C1340.65 271.416 1341.25 270.704 1342.03 270.202C1342.81 269.7 1343.73 269.449 1344.8 269.449C1345.63 269.449 1346.38 269.613 1347.06 269.94C1347.74 270.262 1348.31 270.712 1348.75 271.291C1349.19 271.863 1349.47 272.526 1349.58 273.279L1349.57 273.296H1348.09L1348.08 273.279C1347.95 272.772 1347.73 272.335 1347.42 271.97C1347.11 271.599 1346.73 271.312 1346.28 271.111C1345.84 270.909 1345.35 270.808 1344.8 270.808C1344.05 270.808 1343.4 271.004 1342.84 271.397C1342.29 271.79 1341.86 272.346 1341.56 273.067C1341.26 273.787 1341.11 274.641 1341.11 275.628V275.645C1341.11 276.627 1341.26 277.478 1341.56 278.198C1341.86 278.918 1342.29 279.475 1342.84 279.868C1343.4 280.26 1344.05 280.457 1344.81 280.457C1345.36 280.457 1345.86 280.37 1346.31 280.195C1346.76 280.015 1347.13 279.761 1347.44 279.434C1347.74 279.101 1347.96 278.708 1348.08 278.255L1348.09 278.239H1349.58V278.255C1349.45 278.975 1349.17 279.603 1348.73 280.138C1348.29 280.667 1347.74 281.079 1347.07 281.373C1346.4 281.668 1345.65 281.815 1344.81 281.815ZM1355.5 281.693C1354.66 281.693 1353.94 281.51 1353.33 281.144C1352.72 280.773 1352.26 280.247 1351.92 279.565C1351.6 278.883 1351.43 278.072 1351.43 277.134V277.118C1351.43 276.174 1351.6 275.361 1351.92 274.679C1352.26 273.997 1352.72 273.473 1353.33 273.107C1353.94 272.742 1354.66 272.559 1355.5 272.559C1356.34 272.559 1357.06 272.742 1357.67 273.107C1358.27 273.473 1358.74 273.997 1359.07 274.679C1359.4 275.361 1359.57 276.174 1359.57 277.118V277.134C1359.57 278.072 1359.4 278.883 1359.07 279.565C1358.74 280.247 1358.27 280.773 1357.67 281.144C1357.06 281.51 1356.34 281.693 1355.5 281.693ZM1355.5 280.432C1356.06 280.432 1356.53 280.301 1356.92 280.039C1357.3 279.778 1357.6 279.401 1357.8 278.91C1358.01 278.419 1358.11 277.827 1358.11 277.134V277.118C1358.11 276.419 1358.01 275.825 1357.8 275.334C1357.6 274.842 1357.3 274.469 1356.92 274.212C1356.53 273.95 1356.06 273.819 1355.5 273.819C1354.94 273.819 1354.47 273.95 1354.08 274.212C1353.7 274.469 1353.4 274.842 1353.19 275.334C1352.99 275.825 1352.89 276.419 1352.89 277.118V277.134C1352.89 277.827 1352.99 278.419 1353.19 278.91C1353.4 279.401 1353.7 279.778 1354.08 280.039C1354.47 280.301 1354.94 280.432 1355.5 280.432ZM1365.03 281.693C1364.29 281.693 1363.64 281.504 1363.09 281.128C1362.53 280.751 1362.1 280.222 1361.79 279.54C1361.49 278.853 1361.33 278.051 1361.33 277.134V277.118C1361.33 276.196 1361.49 275.394 1361.79 274.712C1362.1 274.03 1362.53 273.5 1363.08 273.124C1363.63 272.747 1364.29 272.559 1365.03 272.559C1365.44 272.559 1365.82 272.625 1366.17 272.756C1366.53 272.881 1366.85 273.058 1367.13 273.287C1367.41 273.517 1367.63 273.789 1367.78 274.106H1367.91V269.212H1369.34V281.537H1367.91V280.129H1367.78C1367.6 280.457 1367.38 280.738 1367.1 280.972C1366.83 281.202 1366.52 281.379 1366.17 281.504C1365.82 281.63 1365.44 281.693 1365.03 281.693ZM1365.36 280.432C1365.9 280.432 1366.36 280.299 1366.74 280.031C1367.13 279.764 1367.43 279.385 1367.64 278.894C1367.84 278.397 1367.95 277.811 1367.95 277.134V277.118C1367.95 276.436 1367.84 275.849 1367.64 275.358C1367.43 274.867 1367.13 274.488 1366.74 274.22C1366.36 273.953 1365.9 273.819 1365.36 273.819C1364.83 273.819 1364.37 273.953 1363.98 274.22C1363.6 274.482 1363.3 274.859 1363.09 275.35C1362.89 275.841 1362.79 276.43 1362.79 277.118V277.134C1362.79 277.816 1362.89 278.405 1363.09 278.902C1363.3 279.393 1363.6 279.772 1363.98 280.039C1364.37 280.301 1364.83 280.432 1365.36 280.432ZM1375.67 281.693C1374.83 281.693 1374.11 281.507 1373.5 281.136C1372.9 280.765 1372.44 280.241 1372.11 279.565C1371.79 278.883 1371.63 278.081 1371.63 277.159V277.15C1371.63 276.239 1371.79 275.44 1372.11 274.752C1372.44 274.065 1372.9 273.528 1373.5 273.14C1374.09 272.753 1374.79 272.559 1375.58 272.559C1376.39 272.559 1377.07 272.745 1377.65 273.116C1378.22 273.487 1378.67 274.005 1378.97 274.671C1379.28 275.331 1379.44 276.1 1379.44 276.979V277.535H1372.37V276.397H1378.71L1378.01 277.437V276.872C1378.01 276.179 1377.9 275.609 1377.69 275.162C1377.49 274.714 1377.2 274.381 1376.84 274.163C1376.47 273.94 1376.05 273.828 1375.58 273.828C1375.1 273.828 1374.67 273.945 1374.3 274.18C1373.93 274.409 1373.63 274.75 1373.41 275.203C1373.2 275.655 1373.09 276.212 1373.09 276.872V277.437C1373.09 278.064 1373.19 278.602 1373.41 279.049C1373.62 279.491 1373.92 279.832 1374.31 280.072C1374.71 280.307 1375.17 280.424 1375.71 280.424C1376.1 280.424 1376.45 280.37 1376.75 280.26C1377.04 280.151 1377.28 280.012 1377.47 279.843C1377.66 279.674 1377.8 279.502 1377.87 279.327L1377.91 279.254H1379.33L1379.32 279.319C1379.24 279.619 1379.1 279.911 1378.91 280.195C1378.72 280.473 1378.47 280.727 1378.16 280.956C1377.86 281.18 1377.49 281.36 1377.07 281.496C1376.66 281.627 1376.19 281.693 1375.67 281.693ZM1389.99 281.693C1389.15 281.693 1388.43 281.51 1387.82 281.144C1387.21 280.773 1386.74 280.247 1386.41 279.565C1386.08 278.883 1385.92 278.072 1385.92 277.134V277.118C1385.92 276.174 1386.08 275.361 1386.41 274.679C1386.74 273.997 1387.21 273.473 1387.82 273.107C1388.43 272.742 1389.15 272.559 1389.99 272.559C1390.83 272.559 1391.55 272.742 1392.16 273.107C1392.76 273.473 1393.23 273.997 1393.56 274.679C1393.89 275.361 1394.05 276.174 1394.05 277.118V277.134C1394.05 278.072 1393.89 278.883 1393.56 279.565C1393.23 280.247 1392.76 280.773 1392.16 281.144C1391.55 281.51 1390.83 281.693 1389.99 281.693ZM1389.99 280.432C1390.54 280.432 1391.02 280.301 1391.4 280.039C1391.79 279.778 1392.09 279.401 1392.29 278.91C1392.49 278.419 1392.6 277.827 1392.6 277.134V277.118C1392.6 276.419 1392.49 275.825 1392.29 275.334C1392.09 274.842 1391.79 274.469 1391.4 274.212C1391.02 273.95 1390.54 273.819 1389.99 273.819C1389.43 273.819 1388.96 273.95 1388.57 274.212C1388.18 274.469 1387.89 274.842 1387.68 275.334C1387.48 275.825 1387.38 276.419 1387.38 277.118V277.134C1387.38 277.827 1387.48 278.419 1387.68 278.91C1387.89 279.401 1388.18 279.778 1388.57 280.039C1388.96 280.301 1389.43 280.432 1389.99 280.432ZM1396.85 281.537V273.893H1395.39V272.715H1396.85V271.733C1396.85 271.143 1396.95 270.658 1397.14 270.276C1397.34 269.888 1397.63 269.602 1398.01 269.416C1398.39 269.225 1398.86 269.13 1399.42 269.13C1399.59 269.13 1399.75 269.138 1399.91 269.155C1400.06 269.165 1400.22 269.185 1400.36 269.212V270.349C1400.28 270.333 1400.18 270.322 1400.06 270.317C1399.95 270.311 1399.83 270.308 1399.7 270.308C1399.19 270.308 1398.83 270.431 1398.61 270.677C1398.39 270.922 1398.28 271.288 1398.28 271.773V272.715H1400.28V273.893H1398.28V281.537H1396.85ZM1411.99 281.815C1410.92 281.815 1409.99 281.564 1409.21 281.062C1408.43 280.56 1407.83 279.848 1407.4 278.926C1406.98 278.004 1406.77 276.91 1406.77 275.645V275.628C1406.77 274.357 1406.98 273.26 1407.4 272.338C1407.83 271.416 1408.43 270.704 1409.2 270.202C1409.98 269.7 1410.91 269.449 1411.98 269.449C1412.81 269.449 1413.56 269.613 1414.24 269.94C1414.92 270.262 1415.48 270.712 1415.92 271.291C1416.36 271.863 1416.64 272.526 1416.76 273.279L1416.75 273.296H1415.27L1415.26 273.279C1415.13 272.772 1414.91 272.335 1414.6 271.97C1414.29 271.599 1413.91 271.312 1413.46 271.111C1413.02 270.909 1412.52 270.808 1411.98 270.808C1411.23 270.808 1410.57 271.004 1410.01 271.397C1409.46 271.79 1409.04 272.346 1408.74 273.067C1408.44 273.787 1408.29 274.641 1408.29 275.628V275.645C1408.29 276.627 1408.44 277.478 1408.74 278.198C1409.04 278.918 1409.46 279.475 1410.01 279.868C1410.57 280.26 1411.23 280.457 1411.99 280.457C1412.54 280.457 1413.04 280.37 1413.48 280.195C1413.93 280.015 1414.31 279.761 1414.61 279.434C1414.92 279.101 1415.13 278.708 1415.25 278.255L1415.27 278.239H1416.76V278.255C1416.63 278.975 1416.34 279.603 1415.91 280.138C1415.47 280.667 1414.92 281.079 1414.25 281.373C1413.58 281.668 1412.83 281.815 1411.99 281.815ZM1422.67 281.693C1421.84 281.693 1421.12 281.51 1420.51 281.144C1419.9 280.773 1419.43 280.247 1419.1 279.565C1418.77 278.883 1418.61 278.072 1418.61 277.134V277.118C1418.61 276.174 1418.77 275.361 1419.1 274.679C1419.43 273.997 1419.9 273.473 1420.51 273.107C1421.12 272.742 1421.84 272.559 1422.67 272.559C1423.52 272.559 1424.24 272.742 1424.84 273.107C1425.45 273.473 1425.92 273.997 1426.24 274.679C1426.58 275.361 1426.74 276.174 1426.74 277.118V277.134C1426.74 278.072 1426.58 278.883 1426.24 279.565C1425.92 280.247 1425.45 280.773 1424.84 281.144C1424.24 281.51 1423.52 281.693 1422.67 281.693ZM1422.67 280.432C1423.23 280.432 1423.7 280.301 1424.09 280.039C1424.48 279.778 1424.77 279.401 1424.97 278.91C1425.18 278.419 1425.29 277.827 1425.29 277.134V277.118C1425.29 276.419 1425.18 275.825 1424.97 275.334C1424.77 274.842 1424.48 274.469 1424.09 274.212C1423.7 273.95 1423.23 273.819 1422.67 273.819C1422.12 273.819 1421.65 273.95 1421.26 274.212C1420.87 274.469 1420.57 274.842 1420.37 275.334C1420.16 275.825 1420.06 276.419 1420.06 277.118V277.134C1420.06 277.827 1420.16 278.419 1420.37 278.91C1420.57 279.401 1420.87 279.778 1421.26 280.039C1421.65 280.301 1422.12 280.432 1422.67 280.432ZM1428.95 281.537V272.715H1430.38V274.04H1430.51C1430.73 273.571 1431.05 273.208 1431.47 272.952C1431.89 272.69 1432.43 272.559 1433.08 272.559C1434.07 272.559 1434.83 272.843 1435.36 273.41C1435.89 273.972 1436.16 274.777 1436.16 275.825V281.537H1434.74V276.168C1434.74 275.372 1434.57 274.782 1434.23 274.401C1433.9 274.013 1433.38 273.819 1432.68 273.819C1432.21 273.819 1431.8 273.92 1431.46 274.122C1431.11 274.324 1430.85 274.611 1430.65 274.982C1430.47 275.353 1430.38 275.797 1430.38 276.316V281.537H1428.95ZM1442 281.693C1441.26 281.693 1440.61 281.504 1440.05 281.128C1439.49 280.751 1439.06 280.222 1438.76 279.54C1438.45 278.853 1438.3 278.051 1438.3 277.134V277.118C1438.3 276.196 1438.45 275.394 1438.76 274.712C1439.06 274.03 1439.49 273.5 1440.04 273.124C1440.6 272.747 1441.25 272.559 1442 272.559C1442.4 272.559 1442.78 272.625 1443.14 272.756C1443.5 272.881 1443.81 273.058 1444.09 273.287C1444.37 273.517 1444.59 273.789 1444.75 274.106H1444.88V269.212H1446.3V281.537H1444.88V280.129H1444.75C1444.57 280.457 1444.34 280.738 1444.07 280.972C1443.8 281.202 1443.48 281.379 1443.14 281.504C1442.79 281.63 1442.41 281.693 1442 281.693ZM1442.32 280.432C1442.86 280.432 1443.32 280.299 1443.71 280.031C1444.1 279.764 1444.39 279.385 1444.6 278.894C1444.81 278.397 1444.91 277.811 1444.91 277.134V277.118C1444.91 276.436 1444.81 275.849 1444.6 275.358C1444.39 274.867 1444.1 274.488 1443.71 274.22C1443.32 273.953 1442.86 273.819 1442.32 273.819C1441.79 273.819 1441.33 273.953 1440.94 274.22C1440.56 274.482 1440.27 274.859 1440.06 275.35C1439.86 275.841 1439.76 276.43 1439.76 277.118V277.134C1439.76 277.816 1439.86 278.405 1440.06 278.902C1440.27 279.393 1440.56 279.772 1440.94 280.039C1441.33 280.301 1441.79 280.432 1442.32 280.432ZM1451.99 281.693C1451.32 281.693 1450.77 281.567 1450.31 281.316C1449.86 281.06 1449.52 280.689 1449.29 280.203C1449.07 279.712 1448.95 279.12 1448.95 278.427V272.715H1450.38V278.083C1450.38 278.875 1450.53 279.464 1450.84 279.851C1451.15 280.239 1451.65 280.432 1452.36 280.432C1452.75 280.432 1453.09 280.375 1453.38 280.26C1453.68 280.146 1453.93 279.982 1454.13 279.769C1454.34 279.551 1454.49 279.289 1454.58 278.984C1454.69 278.673 1454.74 278.323 1454.74 277.936V272.715H1456.16V281.537H1454.74V280.219H1454.61C1454.47 280.53 1454.27 280.798 1454.03 281.022C1453.78 281.24 1453.49 281.406 1453.14 281.521C1452.81 281.635 1452.42 281.693 1451.99 281.693ZM1462.43 281.693C1461.61 281.693 1460.89 281.504 1460.29 281.128C1459.68 280.751 1459.21 280.219 1458.88 279.532C1458.55 278.845 1458.38 278.034 1458.38 277.101V277.085C1458.38 276.168 1458.55 275.372 1458.87 274.695C1459.21 274.019 1459.68 273.495 1460.28 273.124C1460.89 272.747 1461.6 272.559 1462.43 272.559C1463.14 272.559 1463.76 272.685 1464.27 272.936C1464.79 273.187 1465.21 273.525 1465.52 273.95C1465.83 274.371 1466.03 274.842 1466.12 275.366L1466.12 275.415H1464.71L1464.7 275.391C1464.59 274.954 1464.34 274.583 1463.96 274.278C1463.57 273.972 1463.06 273.819 1462.43 273.819C1461.9 273.819 1461.44 273.953 1461.05 274.22C1460.66 274.488 1460.36 274.867 1460.15 275.358C1459.94 275.844 1459.84 276.419 1459.84 277.085V277.101C1459.84 277.778 1459.95 278.367 1460.16 278.869C1460.37 279.366 1460.67 279.75 1461.06 280.023C1461.45 280.296 1461.9 280.432 1462.43 280.432C1463.02 280.432 1463.51 280.304 1463.88 280.048C1464.26 279.791 1464.53 279.417 1464.69 278.926L1464.71 278.877L1466.12 278.869L1466.1 278.959C1465.98 279.488 1465.77 279.96 1465.46 280.375C1465.16 280.784 1464.75 281.106 1464.25 281.341C1463.75 281.575 1463.14 281.693 1462.43 281.693ZM1471.5 281.603C1470.6 281.603 1469.94 281.42 1469.53 281.054C1469.13 280.689 1468.92 280.086 1468.92 279.246V273.893H1467.53V272.715H1468.92V270.431H1470.4V272.715H1472.33V273.893H1470.4V278.885C1470.4 279.404 1470.49 279.778 1470.69 280.007C1470.89 280.23 1471.21 280.342 1471.67 280.342C1471.8 280.342 1471.91 280.339 1471.99 280.334C1472.09 280.329 1472.2 280.32 1472.33 280.309V281.521C1472.19 281.543 1472.06 281.562 1471.92 281.578C1471.78 281.594 1471.64 281.603 1471.5 281.603Z" fill="white"/>
</g>
<g clip-path="url(#clip2_2_2929)">
<path d="M240.584 268.685C239.771 269.069 238.387 269.79 237.692 269.927C237.665 269.934 237.643 269.943 237.617 269.95C236.806 269.15 235.694 268.654 234.464 268.654C231.985 268.654 229.974 270.664 229.974 273.144C229.974 273.274 229.964 273.515 229.974 273.643C226.764 273.643 224.419 271.967 222.664 269.814C222.43 269.525 222.181 269.676 222.129 269.881C222.012 270.346 221.972 271.123 221.972 271.678C221.972 273.076 223.065 274.449 224.766 275.3C224.452 275.381 224.107 275.438 223.748 275.438C223.325 275.438 222.838 275.328 222.412 275.104C222.254 275.021 221.914 275.044 222.015 275.447C222.419 277.063 224.263 278.197 225.91 278.527C225.536 278.748 224.738 278.703 224.37 278.703C224.235 278.703 223.763 278.671 223.458 278.633C223.179 278.599 222.751 278.671 223.109 279.214C223.879 280.378 225.619 281.109 227.116 281.137C225.737 282.219 223.483 282.614 221.323 282.614C220.886 282.604 220.908 283.102 221.26 283.286C222.853 284.122 225.463 284.617 227.328 284.617C234.74 284.617 238.954 278.967 238.954 273.642C238.954 273.556 238.952 273.376 238.949 273.196C238.949 273.178 238.954 273.161 238.954 273.143C238.954 273.116 238.946 273.09 238.946 273.063C238.943 272.927 238.94 272.801 238.937 272.735C239.524 272.311 240.424 271.574 240.879 271.011C241.034 270.819 240.909 270.587 240.699 270.659C240.157 270.848 239.22 271.213 238.633 271.283C239.808 270.506 240.388 269.829 240.887 269.078C241.058 268.822 240.844 268.561 240.584 268.685Z" fill="white"/>
<path d="M270.88 273.31H274.205V284.617H270.88V273.31ZM272.533 271.98H272.514C271.522 271.98 270.88 271.24 270.88 270.316C270.88 269.373 271.542 268.654 272.552 268.654C273.564 268.654 274.187 269.373 274.205 270.316C274.205 271.24 273.564 271.98 272.533 271.98ZM286.843 284.617H283.517V278.565C283.517 277.103 282.702 276.106 281.394 276.106C280.396 276.106 279.856 276.779 279.594 277.429C279.498 277.662 279.526 278.306 279.526 278.631V284.617H276.201V273.31H279.526V275.05C280.006 274.308 280.757 273.31 282.678 273.31C285.058 273.31 286.842 274.807 286.842 278.148L286.843 284.617Z" fill="white"/>
<path d="M332.262 273.643H328.745V271.647C328.745 270.618 328.829 269.969 330.305 269.969H332.168V266.796C331.262 266.703 330.35 266.657 329.437 266.659C326.73 266.659 324.755 268.312 324.755 271.347V273.643H321.762V277.633L324.755 277.632V286.612H328.745V277.63L331.804 277.629L332.262 273.643Z" fill="white"/>
</g>
<rect opacity="0.25" x="220.061" y="238.325" width="1288.8" height="1.19722" fill="white"/>
<path d="M267.989 105.816C267.989 119.344 249.618 142.558 243.495 142.558C237.371 142.558 219 119.344 219 105.816C219 92.2883 229.967 81.3218 243.495 81.3218C257.022 81.3218 267.989 92.2883 267.989 105.816Z" stroke="white" stroke-width="6.1236"/>
<path d="M255.928 103.506C255.928 109.573 250.289 114.491 243.333 114.491C236.376 114.491 230.737 109.573 230.737 103.506C230.737 97.4382 236.376 92.5197 243.333 92.5197C250.289 92.5197 255.928 97.4382 255.928 103.506ZM255.928 103.506V54.415C255.928 49.6129 259.416 46.1492 262.702 48.2878C271.024 53.7029 279.861 64.5006 275.521 81.5339" stroke="white" stroke-width="5.103" stroke-linecap="round"/>
</g>
<defs>
<clipPath id="clip0_2_2929">
<rect width="1728" height="408" fill="white"/>
</clipPath>
<clipPath id="clip1_2_2929">
<rect width="513.778" height="25" fill="white" transform="translate(959.772 263.537)"/>
</clipPath>
<clipPath id="clip2_2_2929">
<rect width="119.722" height="23.9444" fill="white" transform="translate(219 264.664)"/>
</clipPath>
</defs>
</svg>
