<svg width="241" height="240" viewBox="0 0 241 240" fill="none" xmlns="http://www.w3.org/2000/svg">
<path d="M111.207 139.293L104.136 132.222L111.207 139.293ZM157.571 107.071C161.476 103.166 161.476 96.8342 157.571 92.9289C153.666 89.0237 147.334 89.0237 143.429 92.9289L157.571 107.071ZM109.793 139.293L116.864 132.222L116.864 132.222L109.793 139.293ZM97.5712 112.929C93.6659 109.024 87.3343 109.024 83.429 112.929C79.5238 116.834 79.5238 123.166 83.429 127.071L97.5712 112.929ZM88.4176 30.6277L90.907 20.9426V20.9426L88.4176 30.6277ZM94.7475 31.7688L95.3117 41.7529L94.7475 31.7688ZM103.598 26.5601L110.597 33.703L103.598 26.5601ZM98.6869 30.7132L103.19 39.6418L98.6869 30.7132ZM61.2883 39.8373L51.656 37.1506V37.1506L61.2883 39.8373ZM65.096 30.1398L72.5 36.8615L65.096 30.1398ZM80.6831 28.6397L78.1937 38.3249L80.6831 28.6397ZM70.381 27.0886L68.2619 17.3156L70.381 27.0886ZM48.0297 58.6426L45.343 49.0103L45.343 49.0103L48.0297 58.6426ZM54.0821 56.4658L59.5627 64.8302L54.0821 56.4658ZM59.1427 47.5296L68.7751 50.2163L68.7751 50.2163L59.1427 47.5296ZM56.9659 53.582L65.3303 59.0626L56.9659 53.582ZM29.1398 80.183L38.825 77.6936L29.1398 80.183ZM27.5887 69.8809L17.8158 67.7618L27.5887 69.8809ZM40.3374 60.7882L43.0241 70.4205H43.0241L40.3374 60.7882ZM30.64 64.5959L37.3616 71.9999L30.64 64.5959ZM27.0602 103.098L34.2031 110.097L34.2031 110.097L27.0602 103.098ZM31.2134 98.1867L40.1419 102.69L31.2134 98.1867ZM31.1279 87.9175L21.4427 90.4069L21.4427 90.4069L31.1279 87.9175ZM32.2689 94.2474L42.253 94.8116L32.2689 94.2474ZM21.4713 131.198L14.3284 138.196H14.3284L21.4713 131.198ZM14.9769 123.051L5.45378 126.103H5.45378L14.9769 123.051ZM21.4713 108.802L14.3284 101.804H14.3284L21.4713 108.802ZM14.9769 116.949L5.45378 113.897V113.897L14.9769 116.949ZM31.1279 152.082L40.8131 154.572L31.1279 152.082ZM32.2689 145.753L42.253 145.188L32.2689 145.753ZM27.0602 136.902L34.2031 129.903L27.0602 136.902ZM31.2134 141.813L40.1419 137.31L31.2134 141.813ZM40.3374 179.212L43.0241 169.579H43.0241L40.3374 179.212ZM30.64 175.404L37.3616 168L30.64 175.404ZM29.1398 159.817L19.4547 157.328L29.1398 159.817ZM27.5887 170.119L17.8158 172.238L27.5887 170.119ZM59.1427 192.47L68.7751 189.784L59.1427 192.47ZM56.9659 186.418L65.3303 180.937L56.9659 186.418ZM48.0297 181.357L45.343 190.99H45.343L48.0297 181.357ZM54.0821 183.534L59.5627 175.17L54.0821 183.534ZM80.6831 211.36L78.1937 201.675H78.1937L80.6831 211.36ZM70.381 212.911L72.5 203.138L70.381 212.911ZM61.2883 200.163L51.656 202.849L61.2883 200.163ZM65.096 209.86L57.6919 216.582L65.096 209.86ZM103.598 213.44L110.597 206.297L110.597 206.297L103.598 213.44ZM98.6869 209.287L94.1834 218.215L98.6869 209.287ZM88.4176 209.372L90.907 219.057L88.4176 209.372ZM94.7475 208.231L95.3117 198.247L94.7475 208.231ZM131.698 219.029L124.699 211.886L131.698 219.029ZM123.551 225.523L120.5 216L123.551 225.523ZM109.303 219.029L102.304 226.172L102.304 226.172L109.303 219.029ZM117.449 225.523L120.5 216L117.449 225.523ZM152.583 209.372L150.093 219.057H150.093L152.583 209.372ZM146.253 208.231L145.689 198.247L146.253 208.231ZM137.402 213.44L144.4 220.583H144.4L137.402 213.44ZM142.313 209.287L146.817 218.215L142.313 209.287ZM179.712 200.163L170.08 197.476V197.476L179.712 200.163ZM175.904 209.86L183.308 216.582L175.904 209.86ZM160.317 211.36L162.807 201.675L160.317 211.36ZM170.619 212.911L168.5 203.138L170.619 212.911ZM192.97 181.357L195.657 190.99L192.97 181.357ZM186.918 183.534L181.437 175.17L186.918 183.534ZM181.857 192.47L191.49 195.157V195.157L181.857 192.47ZM184.034 186.418L175.67 180.937L184.034 186.418ZM211.86 159.817L202.175 162.306L211.86 159.817ZM213.412 170.119L203.639 168L213.412 170.119ZM200.663 179.212L197.976 169.579H197.976L200.663 179.212ZM210.36 175.404L217.082 182.808L210.36 175.404ZM213.94 136.902L206.797 129.903L206.797 129.903L213.94 136.902ZM209.787 141.813L218.715 146.317L209.787 141.813ZM209.872 152.082L219.557 149.593L209.872 152.082ZM208.731 145.753L198.747 145.188L208.731 145.753ZM219.529 108.802L212.386 115.801V115.801L219.529 108.802ZM226.023 116.949L216.5 120L226.023 116.949ZM219.529 131.198L226.672 138.196L226.672 138.196L219.529 131.198ZM226.023 123.051L216.5 120L226.023 123.051ZM209.872 87.9175L219.557 90.4069L209.872 87.9175ZM208.731 94.2474L198.747 94.8116L208.731 94.2474ZM213.94 103.098L221.083 96.0996L213.94 103.098ZM209.787 98.1867L218.715 93.6833L209.787 98.1867ZM200.663 60.7882L197.976 70.4205H197.976L200.663 60.7882ZM210.36 64.5959L217.082 57.1918L210.36 64.5959ZM211.86 80.183L202.175 77.6936L211.86 80.183ZM213.412 69.8809L203.639 71.9999L213.412 69.8809ZM181.857 47.5296L191.49 44.8429V44.8429L181.857 47.5296ZM184.034 53.582L175.67 59.0626L184.034 53.582ZM192.97 58.6426L195.657 49.0103L192.97 58.6426ZM186.918 56.4658L181.437 64.8302L186.918 56.4658ZM160.317 28.6397L162.807 38.3249L160.317 28.6397ZM170.619 27.0886L172.738 17.3156L170.619 27.0886ZM179.712 39.8373L170.08 42.524V42.524L179.712 39.8373ZM175.904 30.1398L168.5 36.8615L175.904 30.1398ZM137.402 26.5601L130.403 33.703V33.703L137.402 26.5601ZM142.313 30.7132L137.81 39.6418L142.313 30.7132ZM152.583 30.6277L150.093 20.9426V20.9426L152.583 30.6277ZM146.253 31.7688L145.689 41.7529L146.253 31.7688ZM131.698 20.9712L138.696 13.8283L138.696 13.8283L131.698 20.9712ZM123.551 14.4768L126.603 4.95366L123.551 14.4768ZM109.303 20.9712L102.304 13.8283V13.8283L109.303 20.9712ZM117.449 14.4768L114.398 4.95366L114.397 4.95366L117.449 14.4768ZM118.278 146.364L157.571 107.071L143.429 92.9289L104.136 132.222L118.278 146.364ZM116.864 132.222L97.5712 112.929L83.429 127.071L102.722 146.364L116.864 132.222ZM104.136 132.222C107.651 128.707 113.349 128.707 116.864 132.222L102.722 146.364C107.018 150.66 113.983 150.66 118.278 146.364L104.136 132.222ZM124.699 28.1141L130.403 33.703L144.4 19.4172L138.696 13.8283L124.699 28.1141ZM155.072 40.3129L162.807 38.3249L157.828 18.9545L150.093 20.9426L155.072 40.3129ZM170.08 42.524L172.225 50.2163L191.49 44.8429L189.344 37.1506L170.08 42.524ZM190.284 68.2749L197.976 70.4205L203.349 51.1559L195.657 49.0103L190.284 68.2749ZM202.175 77.6936L200.187 85.428L219.557 90.4069L221.546 82.6724L202.175 77.6936ZM206.797 110.097L212.386 115.801L226.672 101.804L221.083 96.0996L206.797 110.097ZM212.386 124.199L206.797 129.903L221.083 143.9L226.672 138.196L212.386 124.199ZM200.187 154.572L202.175 162.306L221.546 157.328L219.557 149.593L200.187 154.572ZM197.976 169.579L190.284 171.725L195.657 190.99L203.349 188.844L197.976 169.579ZM172.225 189.784L170.08 197.476L189.344 202.849L191.49 195.157L172.225 189.784ZM162.807 201.675L155.072 199.687L150.093 219.057L157.828 221.045L162.807 201.675ZM130.403 206.297L124.699 211.886L138.696 226.172L144.4 220.583L130.403 206.297ZM116.301 211.886L110.597 206.297L96.5997 220.583L102.304 226.172L116.301 211.886ZM85.9282 199.687L78.1937 201.675L83.1725 221.045L90.907 219.057L85.9282 199.687ZM70.9206 197.476L68.7751 189.784L49.5104 195.157L51.656 202.849L70.9206 197.476ZM50.7164 171.725L43.0241 169.579L37.6507 188.844L45.343 190.99L50.7164 171.725ZM38.825 162.306L40.8131 154.572L21.4427 149.593L19.4547 157.328L38.825 162.306ZM34.2031 129.903L28.6142 124.199L14.3284 138.196L19.9173 143.9L34.2031 129.903ZM28.6142 115.801L34.2031 110.097L19.9173 96.0996L14.3284 101.804L28.6142 115.801ZM40.8131 85.428L38.825 77.6936L19.4547 82.6724L21.4427 90.4069L40.8131 85.428ZM43.0241 70.4205L50.7164 68.2749L45.343 49.0103L37.6507 51.1559L43.0241 70.4205ZM68.7751 50.2163L70.9206 42.524L51.656 37.1506L49.5104 44.8429L68.7751 50.2163ZM78.1937 38.3249L85.9282 40.3129L90.907 20.9426L83.1725 18.9545L78.1937 38.3249ZM110.597 33.703L116.301 28.1141L102.304 13.8283L96.5998 19.4172L110.597 33.703ZM85.9282 40.3129C88.4777 40.9682 91.8444 41.9488 95.3117 41.7529L94.1834 21.7847C94.5373 21.7647 94.6444 21.8277 94.1169 21.7244C93.4786 21.5995 92.6095 21.3802 90.907 20.9426L85.9282 40.3129ZM96.5998 19.4172C95.3441 20.6474 94.7012 21.2719 94.2109 21.6992C93.8056 22.0524 93.8669 21.9444 94.1834 21.7847L103.19 39.6418C106.291 38.0778 108.716 35.5452 110.597 33.703L96.5998 19.4172ZM95.3117 41.7529C98.055 41.5978 100.737 40.8792 103.19 39.6418L94.1834 21.7847L94.1834 21.7847L95.3117 41.7529ZM70.9206 42.524C71.7031 39.7188 72.1372 38.1908 72.533 37.1159C72.8878 36.1525 72.9247 36.3937 72.5 36.8615L57.6919 23.4182C55.6753 25.6396 54.547 28.0815 53.7652 30.2045C53.0244 32.2159 52.3507 34.6599 51.656 37.1506L70.9206 42.524ZM83.1725 18.9545C80.6682 18.3108 78.2147 17.6723 76.1024 17.3081C73.8729 16.9237 71.194 16.6799 68.2619 17.3156L72.5 36.8615C71.8826 36.9953 71.6922 36.8428 72.7039 37.0172C73.8327 37.2119 75.373 37.5999 78.1937 38.3249L83.1725 18.9545ZM72.5 36.8615L68.2619 17.3156C64.1888 18.1988 60.4934 20.3324 57.6919 23.4182L72.5 36.8615ZM50.7164 68.2749C53.252 67.5677 56.6579 66.7335 59.5627 64.8302L48.6015 48.1014C48.8981 47.9071 49.0222 47.9081 48.5138 48.0825C47.8985 48.2934 47.0363 48.538 45.343 49.0103L50.7164 68.2749ZM49.5104 44.8429C49.0381 46.5361 48.7936 47.3984 48.5826 48.0136C48.4082 48.5221 48.4072 48.3979 48.6015 48.1014L65.3303 59.0626C67.2336 56.1578 68.0678 52.7519 68.7751 50.2163L49.5104 44.8429ZM59.5627 64.8302C61.861 63.3243 63.8244 61.3609 65.3303 59.0626L48.6015 48.1014L59.5627 64.8302ZM38.825 77.6936C38.1 74.8729 37.712 73.3326 37.5174 72.2038C37.3429 71.1921 37.4955 71.3825 37.3616 71.9999L17.8158 67.7618C17.18 70.6939 17.4238 73.3728 17.8082 75.6023C18.1725 77.7146 18.811 80.168 19.4547 82.6724L38.825 77.6936ZM37.6507 51.1559C35.1601 51.8506 32.7161 52.5243 30.7046 53.265C28.5816 54.0468 26.1397 55.1752 23.9184 57.1918L37.3616 71.9999C36.8938 72.4246 36.6527 72.3877 37.616 72.0329C38.6909 71.6371 40.2189 71.203 43.0241 70.4205L37.6507 51.1559ZM37.3616 71.9999L23.9184 57.1918C20.8325 59.9932 18.6989 63.6887 17.8158 67.7618L37.3616 71.9999ZM34.2031 110.097C36.0454 108.216 38.5779 105.791 40.1419 102.69L22.2848 93.6833C22.4445 93.3667 22.5525 93.3055 22.1994 93.7107C21.772 94.2011 21.1476 94.844 19.9173 96.0996L34.2031 110.097ZM21.4427 90.4069C21.8803 92.1094 22.0996 92.9784 22.2245 93.6167C22.3278 94.1442 22.2648 94.0372 22.2848 93.6833L42.253 94.8116C42.4489 91.3443 41.4684 87.9775 40.8131 85.428L21.4427 90.4069ZM40.1419 102.69C41.3793 100.237 42.098 97.5549 42.253 94.8116L22.2848 93.6833L22.2848 93.6833L40.1419 102.69ZM28.6142 124.199C26.576 122.119 25.4698 120.979 24.7368 120.099C24.0799 119.31 24.3072 119.398 24.5 120L5.45378 126.103C6.36924 128.96 7.91981 131.158 9.36747 132.896C10.7391 134.544 12.5187 136.349 14.3284 138.196L28.6142 124.199ZM14.3284 101.804C12.5187 103.651 10.7391 105.456 9.36748 107.104C7.91981 108.842 6.36924 111.04 5.45378 113.897L24.5 120C24.3072 120.602 24.0799 120.69 24.7368 119.901C25.4698 119.021 26.576 117.881 28.6142 115.801L14.3284 101.804ZM24.5 120L5.45378 113.897C4.18207 117.866 4.18207 122.134 5.45378 126.103L24.5 120ZM40.8131 154.572C41.4684 152.022 42.4489 148.656 42.253 145.188L22.2848 146.317C22.2648 145.963 22.3278 145.856 22.2245 146.383C22.0996 147.022 21.8803 147.891 21.4427 149.593L40.8131 154.572ZM19.9173 143.9C21.1475 145.156 21.772 145.799 22.1994 146.289C22.5525 146.694 22.4445 146.633 22.2848 146.317L40.1419 137.31C38.5779 134.209 36.0454 131.784 34.2031 129.903L19.9173 143.9ZM42.253 145.188C42.098 142.445 41.3793 139.763 40.1419 137.31L22.2848 146.317H22.2848L42.253 145.188ZM43.0241 169.579C40.2189 168.797 38.6909 168.363 37.616 167.967C36.6527 167.612 36.8938 167.575 37.3616 168L23.9184 182.808C26.1397 184.825 28.5816 185.953 30.7046 186.735C32.7161 187.476 35.16 188.149 37.6507 188.844L43.0241 169.579ZM19.4547 157.328C18.811 159.832 18.1725 162.285 17.8082 164.398C17.4238 166.627 17.18 169.306 17.8158 172.238L37.3616 168C37.4955 168.617 37.3429 168.808 37.5174 167.796C37.712 166.667 38.1 165.127 38.825 162.306L19.4547 157.328ZM37.3616 168L17.8158 172.238C18.6989 176.311 20.8325 180.007 23.9184 182.808L37.3616 168ZM68.7751 189.784C68.0678 187.248 67.2336 183.842 65.3303 180.937L48.6015 191.899C48.4072 191.602 48.4082 191.478 48.5826 191.986C48.7936 192.602 49.0381 193.464 49.5104 195.157L68.7751 189.784ZM45.343 190.99C47.0363 191.462 47.8986 191.707 48.5138 191.917C49.0222 192.092 48.8981 192.093 48.6015 191.899L59.5627 175.17C56.6579 173.266 53.2519 172.432 50.7164 171.725L45.343 190.99ZM65.3303 180.937C63.8244 178.639 61.8611 176.676 59.5627 175.17L48.6015 191.899V191.899L65.3303 180.937ZM78.1937 201.675C75.373 202.4 73.8327 202.788 72.7039 202.983C71.6922 203.157 71.8826 203.005 72.5 203.138L68.2619 222.684C71.194 223.32 73.8729 223.076 76.1024 222.692C78.2147 222.328 80.6682 221.689 83.1725 221.045L78.1937 201.675ZM51.656 202.849C52.3507 205.34 53.0244 207.784 53.7652 209.795C54.547 211.918 55.6753 214.36 57.6919 216.582L72.5 203.138C72.9247 203.606 72.8878 203.847 72.533 202.884C72.1372 201.809 71.7031 200.281 70.9206 197.476L51.656 202.849ZM72.5 203.138H72.5L57.6919 216.582C60.4933 219.668 64.1888 221.801 68.2619 222.684L72.5 203.138ZM110.597 206.297C108.716 204.455 106.291 201.922 103.19 200.358L94.1834 218.215C93.8669 218.056 93.8057 217.948 94.2109 218.301C94.7012 218.728 95.3441 219.353 96.5997 220.583L110.597 206.297ZM90.907 219.057C92.6095 218.62 93.4786 218.4 94.1169 218.276C94.6444 218.172 94.5373 218.235 94.1834 218.215L95.3117 198.247C91.8444 198.051 88.4777 199.032 85.9282 199.687L90.907 219.057ZM103.19 200.358C100.737 199.121 98.0551 198.402 95.3117 198.247L94.1834 218.215H94.1834L103.19 200.358ZM124.699 211.886C122.619 213.924 121.479 215.03 120.599 215.763C119.81 216.42 119.898 216.193 120.5 216L126.603 235.046C129.46 234.131 131.658 232.58 133.397 231.133C135.044 229.761 136.849 227.981 138.696 226.172L124.699 211.886ZM102.304 226.172C104.151 227.981 105.956 229.761 107.604 231.133C109.342 232.58 111.54 234.131 114.397 235.046L120.5 216C121.102 216.193 121.19 216.42 120.401 215.763C119.521 215.03 118.381 213.924 116.301 211.886L102.304 226.172ZM120.5 216H120.5L114.397 235.046C118.367 236.318 122.634 236.318 126.603 235.046L120.5 216ZM155.072 199.687C152.523 199.032 149.156 198.051 145.689 198.247L146.817 218.215C146.463 218.235 146.356 218.172 146.883 218.276C147.522 218.4 148.391 218.62 150.093 219.057L155.072 199.687ZM144.4 220.583C145.656 219.353 146.299 218.728 146.789 218.301C147.195 217.948 147.133 218.056 146.817 218.215L137.81 200.358C134.709 201.922 132.284 204.455 130.403 206.297L144.4 220.583ZM145.689 198.247C142.945 198.402 140.263 199.121 137.81 200.358L146.817 218.215L145.689 198.247ZM170.08 197.476C169.297 200.281 168.863 201.809 168.467 202.884C168.112 203.847 168.075 203.606 168.5 203.138L183.308 216.582C185.325 214.36 186.453 211.918 187.235 209.795C187.976 207.784 188.65 205.34 189.344 202.849L170.08 197.476ZM157.828 221.045C160.332 221.689 162.785 222.328 164.898 222.692C167.127 223.076 169.806 223.32 172.738 222.684L168.5 203.138C169.118 203.005 169.308 203.157 168.296 202.983C167.167 202.788 165.627 202.4 162.807 201.675L157.828 221.045ZM168.5 203.138L172.738 222.684C176.811 221.801 180.507 219.668 183.308 216.582L168.5 203.138ZM190.284 171.725C187.748 172.432 184.342 173.266 181.437 175.17L192.399 191.899C192.102 192.093 191.978 192.092 192.486 191.917C193.102 191.707 193.964 191.462 195.657 190.99L190.284 171.725ZM191.49 195.157C191.962 193.464 192.207 192.602 192.418 191.986C192.592 191.478 192.593 191.602 192.399 191.899L175.67 180.937C173.767 183.842 172.932 187.248 172.225 189.784L191.49 195.157ZM181.437 175.17C179.139 176.676 177.176 178.639 175.67 180.937L192.399 191.899L192.399 191.899L181.437 175.17ZM202.175 162.306C202.9 165.127 203.288 166.667 203.483 167.796C203.657 168.808 203.505 168.617 203.639 168L223.184 172.238C223.82 169.306 223.576 166.627 223.192 164.398C222.828 162.285 222.189 159.832 221.546 157.328L202.175 162.306ZM203.349 188.844C205.84 188.149 208.284 187.476 210.296 186.735C212.419 185.953 214.86 184.825 217.082 182.808L203.639 168C204.106 167.575 204.348 167.612 203.384 167.967C202.309 168.363 200.781 168.797 197.976 169.579L203.349 188.844ZM203.639 168L217.082 182.808C220.168 180.007 222.301 176.311 223.184 172.238L203.639 168ZM206.797 129.903C204.955 131.784 202.422 134.209 200.858 137.31L218.715 146.317C218.556 146.633 218.448 146.694 218.801 146.289C219.228 145.799 219.853 145.156 221.083 143.9L206.797 129.903ZM219.557 149.593C219.12 147.891 218.901 147.021 218.776 146.383C218.672 145.856 218.735 145.963 218.715 146.317L198.747 145.188C198.551 148.656 199.532 152.022 200.187 154.572L219.557 149.593ZM200.858 137.31C199.621 139.763 198.902 142.445 198.747 145.188L218.715 146.317L200.858 137.31ZM212.386 115.801C214.424 117.881 215.53 119.021 216.263 119.901C216.92 120.69 216.693 120.602 216.5 120L235.546 113.897C234.631 111.04 233.08 108.842 231.633 107.104C230.261 105.456 228.481 103.651 226.672 101.804L212.386 115.801ZM226.672 138.196C228.481 136.349 230.261 134.544 231.633 132.896C233.08 131.158 234.631 128.96 235.546 126.103L216.5 120C216.693 119.398 216.92 119.31 216.263 120.099C215.53 120.979 214.424 122.119 212.386 124.199L226.672 138.196ZM216.5 120V120L235.546 126.103C236.818 122.134 236.818 117.866 235.546 113.897L216.5 120ZM200.187 85.428C199.532 87.9775 198.551 91.3443 198.747 94.8116L218.715 93.6833C218.735 94.0372 218.672 94.1442 218.776 93.6167C218.901 92.9785 219.12 92.1094 219.557 90.4069L200.187 85.428ZM221.083 96.0996C219.853 94.844 219.228 94.2011 218.801 93.7108C218.448 93.3055 218.556 93.3667 218.715 93.6833L200.858 102.69C202.422 105.791 204.955 108.216 206.797 110.097L221.083 96.0996ZM198.747 94.8116C198.902 97.5549 199.621 100.237 200.858 102.69L218.715 93.6833V93.6833L198.747 94.8116ZM197.976 70.4205C200.781 71.203 202.309 71.6371 203.384 72.0329C204.348 72.3877 204.106 72.4246 203.639 71.9999L217.082 57.1918C214.86 55.1752 212.419 54.0469 210.296 53.265C208.284 52.5243 205.84 51.8506 203.349 51.1559L197.976 70.4205ZM221.546 82.6724C222.189 80.168 222.828 77.7146 223.192 75.6023C223.576 73.3728 223.82 70.6939 223.184 67.7618L203.639 71.9999C203.505 71.3825 203.657 71.1921 203.483 72.2038C203.288 73.3326 202.9 74.8729 202.175 77.6936L221.546 82.6724ZM203.639 71.9999V71.9999L223.184 67.7618C222.301 63.6887 220.168 59.9932 217.082 57.1918L203.639 71.9999ZM172.225 50.2163C172.932 52.7518 173.767 56.1578 175.67 59.0626L192.399 48.1014C192.593 48.398 192.592 48.5221 192.418 48.0137C192.207 47.3984 191.962 46.5361 191.49 44.8429L172.225 50.2163ZM195.657 49.0103C193.964 48.538 193.102 48.2934 192.486 48.0825C191.978 47.9081 192.102 47.9071 192.399 48.1014L181.437 64.8302C184.342 66.7335 187.748 67.5677 190.284 68.2749L195.657 49.0103ZM175.67 59.0626C177.176 61.3609 179.139 63.3243 181.437 64.8302L192.399 48.1014H192.399L175.67 59.0626ZM162.807 38.3249C165.627 37.5999 167.167 37.2119 168.296 37.0172C169.308 36.8428 169.118 36.9953 168.5 36.8615L172.738 17.3156C169.806 16.6799 167.127 16.9237 164.898 17.3081C162.785 17.6723 160.332 18.3108 157.828 18.9545L162.807 38.3249ZM189.344 37.1506C188.65 34.6599 187.976 32.216 187.235 30.2045C186.453 28.0815 185.325 25.6396 183.308 23.4182L168.5 36.8615C168.075 36.3937 168.112 36.1525 168.467 37.1159C168.863 38.1908 169.297 39.7188 170.08 42.524L189.344 37.1506ZM168.5 36.8615L183.308 23.4182C180.507 20.3324 176.811 18.1988 172.738 17.3156L168.5 36.8615ZM130.403 33.703C132.284 35.5453 134.709 38.0778 137.81 39.6418L146.817 21.7847C147.133 21.9444 147.195 22.0524 146.789 21.6992C146.299 21.2719 145.656 20.6474 144.4 19.4172L130.403 33.703ZM150.093 20.9426C148.391 21.3802 147.522 21.5995 146.883 21.7244C146.356 21.8277 146.463 21.7647 146.817 21.7847L145.689 41.7529C149.156 41.9488 152.523 40.9682 155.072 40.3129L150.093 20.9426ZM137.81 39.6418C140.263 40.8792 142.945 41.5978 145.689 41.7529L146.817 21.7847V21.7847L137.81 39.6418ZM138.696 13.8283C136.849 12.0186 135.044 10.239 133.397 8.86736C131.658 7.41969 129.46 5.86911 126.603 4.95366L120.5 23.9999C119.898 23.8071 119.81 23.5798 120.599 24.2367C121.479 24.9697 122.619 26.0759 124.699 28.1141L138.696 13.8283ZM116.301 28.1141C118.381 26.0759 119.521 24.9697 120.401 24.2367C121.19 23.5798 121.102 23.8071 120.5 23.9999L114.397 4.95366C111.54 5.86911 109.342 7.41969 107.604 8.86735C105.956 10.2389 104.151 12.0186 102.304 13.8283L116.301 28.1141ZM126.603 4.95366C122.634 3.68195 118.367 3.68195 114.398 4.95366L120.5 23.9999L126.603 4.95366Z" fill="#05FF00" fill-opacity="0.67"/>
</svg>
